<svg width="32" height="32" viewBox="0 0 32 32" fill="none" xmlns="http://www.w3.org/2000/svg">
  <!-- Background circle -->
  <circle cx="16" cy="16" r="16" fill="#1a1a1a"/>
  
  <!-- Film strip design -->
  <rect x="6" y="8" width="20" height="16" rx="2" fill="#ff6b35"/>
  
  <!-- Film holes -->
  <rect x="4" y="10" width="2" height="1" fill="#1a1a1a"/>
  <rect x="4" y="12" width="2" height="1" fill="#1a1a1a"/>
  <rect x="4" y="14" width="2" height="1" fill="#1a1a1a"/>
  <rect x="4" y="16" width="2" height="1" fill="#1a1a1a"/>
  <rect x="4" y="18" width="2" height="1" fill="#1a1a1a"/>
  <rect x="4" y="20" width="2" height="1" fill="#1a1a1a"/>
  
  <rect x="26" y="10" width="2" height="1" fill="#1a1a1a"/>
  <rect x="26" y="12" width="2" height="1" fill="#1a1a1a"/>
  <rect x="26" y="14" width="2" height="1" fill="#1a1a1a"/>
  <rect x="26" y="16" width="2" height="1" fill="#1a1a1a"/>
  <rect x="26" y="18" width="2" height="1" fill="#1a1a1a"/>
  <rect x="26" y="20" width="2" height="1" fill="#1a1a1a"/>
  
  <!-- Play button -->
  <polygon points="12,10 12,22 22,16" fill="white"/>
  
  <!-- "A" letter for AnisFlix -->
  <text x="16" y="28" font-family="Arial, sans-serif" font-size="8" font-weight="bold" text-anchor="middle" fill="white">A</text>
</svg>
